<svg id="Capa_1" enable-background="new 0 0 511.895 511.895" height="512" viewBox="0 0 511.895 511.895" width="512" xmlns="http://www.w3.org/2000/svg"><g><path d="m503.626 306.934c-1.673-5.164-5.773-9.192-10.969-10.775-1.264-.385-2.555-.614-3.846-.692-2.355-17.158-11.15-54.641-43.885-83.345-4.744-4.159-11.326-5.249-17.176-2.844-5.898 2.424-9.843 7.875-10.295 14.226-.73 10.243-2.76 26.644-8.372 42.166-6.246-36.326-25.01-68.175-51.621-91.112 5.863-7.098 10.39-15.168 13.526-24.12 13.381 11.823 25.045 26.023 34.359 42.157 1.389 2.406 3.91 3.751 6.502 3.751 1.272 0 2.562-.324 3.743-1.006 3.587-2.071 4.816-6.658 2.745-10.245-11.512-19.94-26.341-37.18-43.485-51.012 2.183-17.745-1.497-37.867-10.589-56.647-1.805-3.728-6.291-5.288-10.019-3.482-3.728 1.805-5.288 6.291-3.482 10.019 6.384 13.187 9.707 26.99 9.738 39.683-11.701-7.621-24.239-13.765-37.361-18.246-.239-.097-.486-.181-.739-.254-6.059-2.037-12.237-3.73-18.516-5.039-1.656-.345-3.315-.656-4.975-.947-6.583-8.577-29.217-35.383-58.609-40.691-4.08-.735-7.978 1.972-8.714 6.048-.736 4.077 1.972 7.978 6.048 8.714 15.918 2.875 30.011 14.23 39.31 23.634-17.747-.612-35.528 1.757-52.865 6.985-5.96-4.087-19.204-11.241-38.076-10.454-4.139.172-7.354 3.667-7.183 7.805.172 4.139 3.678 7.345 7.805 7.183 7.287-.299 13.41.895 18.237 2.519-12.938 5.616-25.512 12.867-37.503 21.724-3.332 2.461-4.038 7.157-1.577 10.489s7.155 4.037 10.489 1.577c20.781-15.35 43.414-25.47 66.565-30.067-3.536 7.404-11.644 18.151-30.199 28.385-18.481 5.341-35.763 14.069-51.007 25.726-16.249 3.372-31.2 9.658-41.028 14.436-.759.369-1.367.102-1.743-.188-.76-.586-.624-1.273-.58-1.495 5.149-25.892 18.79-44.993 29.33-56.462 11.301-12.314 21.489-18.642 21.579-18.697 2.424-1.478 3.806-4.198 3.57-7.027s-2.049-5.283-4.685-6.338c-.648-.26-.888-.763-.976-1.14s-.093-.935.375-1.455c21.823-24.192 46.698-38.721 73.935-43.183 20.354-3.334 34.54.509 34.653.54 2.222.636 4.61.212 6.478-1.146s3.004-3.503 3.082-5.811l.131-3.869c.017-.559.295-.927.524-1.137.233-.213.631-.458 1.207-.429 20.166 1.136 35.366 12.521 44.566 21.872 2.905 2.952 7.654 2.991 10.606.086 2.953-2.905 2.991-7.654.086-10.606-15.852-16.111-34.668-25.215-54.413-26.328-4.514-.249-8.846 1.288-12.183 4.344-2.121 1.942-3.667 4.335-4.546 6.977-7.123-.934-18.241-1.546-31.746.566-21.323 3.334-53.122 14.382-83.516 48.077-3.638 4.032-5.077 9.598-3.85 14.89.299 1.292.749 2.529 1.331 3.69-4.563 3.557-10.739 8.879-17.255 15.979-11.835 12.878-27.166 34.38-32.994 63.686-1.228 6.188 1.122 12.433 6.132 16.296 2.994 2.309 6.564 3.49 10.167 3.49 2.475 0 4.967-.558 7.296-1.691 2.872-1.396 6.219-2.932 9.916-4.476-4.07 4.839-7.88 9.953-11.391 15.336-2.263 3.47-1.284 8.117 2.185 10.379 3.471 2.263 8.117 1.285 10.379-2.185 26.062-39.962 70.059-63.821 117.691-63.821 72.253 0 132.115 54.477 139.613 125.414-.851.05-1.705.162-2.554.346-5.44 1.175-9.907 4.969-11.948 10.148-4.527 11.491-13.076 31.235-22.897 44.204-3.587-2.059-7.84-2.72-11.915-1.808-4.638 1.038-8.615 4.019-10.912 8.178-3.859 6.988-7.244 14.271-10.059 21.644-1.478 3.869.461 8.204 4.331 9.682 3.869 1.478 8.204-.461 9.682-4.331 3.197-8.373 6.755-15.357 9.177-19.743.289-.524.734-.72 1.057-.792.327-.073.82-.085 1.313.271l4.251 3.073c3.06 2.213 7.285 1.805 9.866-.95 12.568-13.411 23.285-36.729 30.062-53.928.262-.665.775-.903 1.16-.986.389-.082.96-.079 1.479.425l2.425 2.351c1.578 1.529 3.745 2.291 5.937 2.08 2.188-.21 4.174-1.37 5.433-3.172 14.75-21.128 19.546-49.422 20.972-69.437.06-.845.596-1.237 1.035-1.418.59-.242 1.123-.158 1.586.249 37.838 33.18 39.62 81.201 39.633 81.668.069 2.837 1.734 5.393 4.302 6.602 2.568 1.208 5.597.865 7.83-.888.55-.434 1.111-.389 1.483-.276.37.113.856.386 1.071 1.048 10.038 30.995 10.182 59.804.428 85.625-7.29 19.297-17.708 29.662-17.793 29.746-1.662 1.606-2.49 3.89-2.244 6.188.245 2.298 1.537 4.355 3.5 5.575l3.266 2.028c.481.299.663.727.73 1.033.068.308.084.776-.229 1.254-10.863 16.589-30.952 27.592-55.116 30.186-20.811 2.235-41.967-2.025-57.855-11.113 12.48-6.34 24.094-14.151 34.555-23.305.16-.129.317-.263.468-.408 4.803-4.235 9.366-8.746 13.647-13.538 1.127-1.261 2.225-2.542 3.308-3.834 10.739-1.417 45.262-7.625 64.545-30.413 2.675-3.162 2.281-7.895-.881-10.57-3.163-2.675-7.894-2.281-10.57.881-10.448 12.348-27.329 18.875-40.122 22.227 9.404-15.063 16.243-31.646 20.383-49.274 6.517-3.115 19.327-11.001 28.091-27.75 1.92-3.67.502-8.202-3.168-10.122-3.671-1.921-8.202-.502-10.122 3.168-3.383 6.464-7.479 11.17-11.3 14.54 1.606-14.014 1.613-28.531-.061-43.346-.465-4.116-4.175-7.071-8.295-6.61-4.116.465-7.076 4.179-6.61 8.295 2.847 25.184.45 49.396-6.811 71.406-.266-.48-.533-.976-.799-1.501-3.501-6.91-7.566-19.304-7.051-39.11.107-4.141-3.162-7.584-7.303-7.692-4.11-.085-7.585 3.162-7.692 7.303-.498 19.164 2.666 35.209 9.404 47.691 2.355 4.363 4.802 7.585 6.857 9.864-5.928 12.643-13.61 24.358-22.987 34.856-2.376 2.659-4.855 5.216-7.412 7.689-14.946-17.233-13.349-39.553-12.253-54.774.082-1.136.16-2.228.229-3.271.272-4.133-2.858-7.704-6.992-7.976-4.127-.269-7.704 2.858-7.976 6.992-.066 1.013-.143 2.074-.223 3.178-1.209 16.808-3.151 43.938 15.907 65.73-9.841 7.756-20.669 14.291-32.226 19.499-14.376-14.391-20.762-32.728-18.956-54.527.342-4.128-2.728-7.751-6.855-8.094-4.128-.335-7.752 2.728-8.094 6.855-.651 7.855-.407 15.346.71 22.464-19.007 9.251-40.152 14.125-61.442 14.125-77.423 0-140.411-62.988-140.411-140.411 0-16.064 2.699-31.833 8.021-46.868 1.382-3.905-.662-8.19-4.567-9.573-3.905-1.384-8.19.663-9.573 4.567-2.996 8.462-5.237 17.133-6.721 25.948-7.714-.861-15.552-.55-23.432.937 3.548-17.499 10.014-34.698 19.328-50.831 2.071-3.587.842-8.174-2.745-10.245-3.587-2.072-8.174-.842-10.245 2.745-11.507 19.93-19.021 41.381-22.43 63.133-22.427 9.458-42.634 30.208-54.126 56.169-11.663 26.349-12.063 53.924-1.098 75.655 2.036 4.038 5.535 7.013 9.851 8.377 2.741.866 5.584 1.009 8.318.452 2.753 6.635 7.782 16.569 16.363 27.209 13.55 16.801 39.019 38.817 83.391 48.289 5.304 1.139 10.841-.395 14.811-4.099.972-.907 1.82-1.917 2.537-3.003 10.404 4.224 29.598 10.379 53.097 10.379 14.118 0 27.919-2.253 41.029-6.701 5.972-2.036 10.204-7.196 11.043-13.467.845-6.315-1.903-12.452-7.17-16.014-4.054-2.743-8.832-6.219-13.786-10.279 9.247 1.722 18.775 2.631 28.514 2.631 22.527 0 44.907-4.945 65.225-14.332 3.212 8.848 8.015 16.992 14.398 24.39-16.925 5.674-35.05 8.673-53.673 8.673-4.142 0-7.5 3.358-7.5 7.5s3.358 7.5 7.5 7.5c23.017 0 45.354-4.219 65.899-12.145 16.451 12.456 39.124 19.481 62.852 19.481 4.261 0 8.557-.226 12.854-.688 28.649-3.076 52.729-16.519 66.063-36.882 2.477-3.782 3.304-8.296 2.328-12.71-.621-2.807-1.919-5.342-3.769-7.429 4.369-5.702 10.458-15.025 15.382-27.78 7.772-20.14 14.103-53.204.122-96.375zm-157.993-141.612c-10.876-7.682-22.779-13.997-35.457-18.707 6.993-7.171 12.081-15.327 15.207-24.393 11.645 4.646 22.726 10.76 33.021 18.169-2.543 9.469-6.83 17.825-12.771 24.931zm-100.709-28.018c9.265-9.838 13.052-19.016 14.596-25.017 13.788-1.141 27.647-.334 41.303 2.514 3.493.728 6.95 1.597 10.372 2.576-3.195 9.291-9.025 17.228-17.669 24.092-12.043-2.984-24.634-4.565-37.584-4.565-3.694 0-7.367.144-11.018.4zm-161.443 208.608c-1.117-3.392-2.093-6.823-2.957-10.28 8.746-1.708 17.592-.979 26.812 2.19 4.971 16.199 12.52 31.279 22.171 44.759-12.482-2.707-21.83-1.378-27.594.294-7.862-11.352-14.078-23.737-18.432-36.963zm17.445-64.619c-.257 3.657-.393 7.332-.393 11.021 0 9.858.933 19.502 2.697 28.855-8.635-1.792-17.194-1.879-25.602-.246-1.797-12.403-2.043-25.05-.775-37.665 8.13-2.171 16.197-2.826 24.073-1.965zm131.885 186.505c.698.472.77 1.13.707 1.599-.085.635-.426 1.058-1.005 1.255-11.544 3.917-23.724 5.902-36.2 5.902-31.021 0-54.132-12.297-54.349-12.415-2.492-1.359-5.539-1.195-7.869.424-2.332 1.619-3.549 4.415-3.147 7.225.1.696-.218 1.159-.503 1.424-.281.262-.755.543-1.437.397-31.863-6.801-56.884-21.08-74.368-42.439-13.066-15.962-16.832-30.169-16.861-30.285-.561-2.244-2.126-4.104-4.241-5.04s-4.544-.844-6.583.25l-3.383 1.816c-.495.265-.957.208-1.256.113-.303-.096-.719-.317-.978-.83-8.934-17.704-8.416-40.604 1.421-62.827 8.471-19.137 22.736-35.325 38.548-44.539-.747 13.932.202 27.851 2.88 41.445.036.259.087.518.151.776 1.266 6.265 2.888 12.461 4.894 18.553.529 1.607 1.089 3.199 1.667 4.783-4.136 9.99-16.034 42.994-5.935 71.102 1.1 3.061 3.983 4.966 7.059 4.966.842 0 1.698-.143 2.536-.444 3.898-1.4 5.923-5.696 4.522-9.594-5.469-15.222-2.682-33.105.813-45.86 8.343 15.676 19.285 29.89 32.481 42.29-.561 7.202-.136 22.239 9.987 38.202 1.428 2.252 3.858 3.484 6.341 3.484 1.374 0 2.763-.377 4.009-1.167 3.498-2.218 4.536-6.853 2.317-10.351-3.907-6.161-5.935-12.062-6.942-17.055 11.334 8.398 23.902 15.663 37.57 21.62.976.425 1.992.626 2.993.626 2.893 0 5.649-1.684 6.879-4.505 1.655-3.797-.082-8.217-3.879-9.872-23.745-10.35-43.868-24.939-59.442-42.753 8.155-.72 21.616.865 40.104 12.188.213.131.435.234.656.341 12.9 11.436 27.708 20.763 43.881 27.437 11.528 13.903 25.827 24.9 35.962 31.758z"/><path d="m326.32 302.058v-21.767c0-13.814-11.239-25.054-25.054-25.054s-25.054 11.239-25.054 25.054v21.767c0 13.814 11.239 25.054 25.054 25.054s25.054-11.239 25.054-25.054zm-35.107 0v-21.767c0-5.543 4.51-10.054 10.054-10.054s10.054 4.51 10.054 10.054v21.767c0 5.543-4.51 10.054-10.054 10.054s-10.054-4.51-10.054-10.054z"/><path d="m264.03 319.612v-56.874c0-4.142-3.358-7.5-7.5-7.5s-7.5 3.358-7.5 7.5v56.874c0 4.142 3.358 7.5 7.5 7.5s7.5-3.358 7.5-7.5z"/><path d="m212.028 255.238h-18.961c-4.142 0-7.5 3.358-7.5 7.5v56.874c0 4.142 3.358 7.5 7.5 7.5h22.817c12.699 0 23.03-10.332 23.03-23.031 0-7.494-3.599-14.161-9.158-18.37 1.696-2.974 2.679-6.406 2.679-10.068-.001-11.251-9.155-20.405-20.407-20.405zm-11.462 15h11.461c2.981 0 5.406 2.425 5.406 5.406s-2.425 5.406-5.406 5.406h-11.461zm15.317 41.874h-15.317v-16.062h11.461 3.855c4.428 0 8.03 3.603 8.03 8.031s-3.601 8.031-8.029 8.031z"/></g></svg>