<svg height="469pt" viewBox="0 0 469.65623 469" width="469pt" xmlns="http://www.w3.org/2000/svg"><path d="m413.65625 176.328125-120-120-32 64 88 88zm0 0" fill="#d85b55"/><path d="m417.65625 180.328125c6.628906 6.628906 17.371094 6.628906 24 0s6.628906-17.371094 0-24l-128-128c-6.628906-6.628906-17.371094-6.628906-24 0s-6.628906 17.371094 0 24zm0 0" fill="#31cccc"/><path d="m444.804688 145.179688c15.910156-15.914063 24.851562-37.496094 24.851562-60 0-46.863282-37.988281-84.851563-84.851562-84.851563-22.507813 0-44.089844 8.9375-60 24.851563l-7.148438 7.148437 120 120zm0 0" fill="#d85b55"/><path d="m261.65625 120.328125-88 112-144 144 64 64 144-144 112-88zm0 0" fill="#31cccc"/><path d="m0 458.671875 56-56 11.3125 11.3125-56 56zm0 0" fill="#3f4f4f"/><path d="m240 218.671875 24-24 11.3125 11.3125-24 24zm0 0" fill="#3f4f4f"/><path d="m61.65625 24.328125v107.328125c-4.722656-2.0625-10.140625-3.328125-16-3.328125-17.671875 0-32 10.746094-32 24s14.328125 24 32 24 32-10.746094 32-24v-91.429687l80-17.140626v63.898438c-4.722656-2.0625-10.140625-3.328125-16-3.328125-17.671875 0-32 10.746094-32 24s14.328125 24 32 24 32-10.746094 32-24v-128zm0 0" fill="#ffaf1c"/><path d="m309.65625 312.328125v107.328125c-4.722656-2.0625-10.140625-3.328125-16-3.328125-17.671875 0-32 10.746094-32 24s14.328125 24 32 24 32-10.746094 32-24v-91.429687l80-17.140626v63.898438c-4.722656-2.0625-10.140625-3.328125-16-3.328125-17.671875 0-32 10.746094-32 24s14.328125 24 32 24 32-10.746094 32-24v-128zm0 0" fill="#7ac174"/></svg>