<?xml version="1.0" encoding="iso-8859-1"?>
<!-- Generator: Adobe Illustrator 19.0.0, SVG Export Plug-In . SVG Version: 6.00 Build 0)  -->
<svg version="1.1" id="Capa_1" xmlns="http://www.w3.org/2000/svg" xmlns:xlink="http://www.w3.org/1999/xlink" x="0px" y="0px"
	 viewBox="0 0 512 512" style="enable-background:new 0 0 512 512;" xml:space="preserve">
<path style="fill:#D5DCED;" d="M330,240v40c0,11.046-8.954,20-20,20v20h-40v-20c-11.046,0-20-8.954-20-20v-40H330z"/>
<path style="fill:#AFB9D2;" d="M330,240v40c0,11.046-8.954,20-20,20v10h-30v-10c11.046,0,20-8.954,20-20v-40H330z"/>
<path style="fill:#8A90A7;" d="M467.5,140v30c0,9.649-7.851,17.5-17.5,17.5h-80c-9.649,0-17.5-7.851-17.5-17.5v-30
	c0-4.142,3.357-7.5,7.5-7.5s7.5,3.358,7.5,7.5v30c0,1.378,1.121,2.5,2.5,2.5h80c1.379,0,2.5-1.122,2.5-2.5v-30
	c0-4.142,3.357-7.5,7.5-7.5S467.5,135.858,467.5,140z M332.5,232.5h-35V230c0-4.142-3.357-7.5-7.5-7.5s-7.5,3.358-7.5,7.5v2.5h-35
	c-4.142,0-7.5,3.358-7.5,7.5s3.358,7.5,7.5,7.5h85c4.143,0,7.5-3.358,7.5-7.5S336.643,232.5,332.5,232.5z"/>
<path style="fill:#B16F52;" d="M165,327.667H35c-2.761,0-5-2.239-5-5V135c0-2.761,2.239-5,5-5h130c2.761,0,5,2.239,5,5v187.667
	C170,325.428,167.761,327.667,165,327.667z"/>
<path style="fill:#EBC9A0;" d="M482,315v170c0,2.761-2.239,5-5,5H35c-2.761,0-5-2.239-5-5V315c0-2.761,2.239-5,5-5h442
	C479.761,310,482,312.239,482,315z M477,0H35c-2.761,0-5,2.239-5,5v130c0,2.761,2.239,5,5,5h442c2.761,0,5-2.239,5-5V5
	C482,2.239,479.761,0,477,0z"/>
<path style="fill:#E1B894;" d="M482,315v170c0,2.761-2.239,5-5,5h-35.333c2.761,0,5-2.239,5-5V315c0-2.761-2.239-5-5-5H477
	C479.761,310,482,312.239,482,315z M477,0h-35.333c2.761,0,5,2.239,5,5v130c0,2.761-2.239,5-5,5H477c2.761,0,5-2.239,5-5V5
	C482,2.239,479.761,0,477,0z"/>
<path style="fill:#D7AF87;" d="M162.5,0h15v140h-15V0z M334.5,0v140h15V0H334.5z M256,322.5c-4.142,0-7.5,3.358-7.5,7.5v150
	c0,4.142,3.358,7.5,7.5,7.5c4.143,0,7.5-3.358,7.5-7.5V330C263.5,325.858,260.143,322.5,256,322.5z"/>
<path style="fill:#FF5050;" d="M430,250h-40c-5.523,0-10-4.477-10-10v-60c0-5.523,4.477-10,10-10h40c5.523,0,10,4.477,10,10v60
	C440,245.523,435.523,250,430,250z"/>
<path style="fill:#E95050;" d="M440,180v60c0,5.523-4.477,10-10,10h-40c-5.523,0-10-4.477-10-10v-11.714
	c3.129,1.106,6.493,1.714,10,1.714l0,0c16.569,0,30-13.431,30-30v-30h10C435.523,170,440,174.477,440,180z"/>
<path style="fill:#F7C295;" d="M110,204.997H90c-13.807,0-25-11.193-25-25l0,0c0-2.761,2.239-5,5-5h60c2.761,0,5,2.239,5,5l0,0
	C135,193.804,123.807,204.997,110,204.997z"/>
<path style="fill:#F7A676;" d="M135,265L135,265c0,19.33-15.67,35-35,35l0,0c-19.33,0-35-15.67-35-35l0,0c0-2.761,2.239-5,5-5h60
	C132.761,260,135,262.239,135,265z M130,200H70c-2.761,0-5,2.239-5,5l0,0c0,13.807,11.193,25,25,25h20c13.807,0,25-11.193,25-25l0,0
	C135,202.239,132.761,200,130,200z"/>
<path style="fill:#EBC9A0;" d="M170,222.5v15H30v-15H170z"/>
<path style="fill:#D7AF87;" d="M512,5v30c0,2.761-2.239,5-5,5H5c-2.761,0-5-2.239-5-5V5c0-2.761,2.239-5,5-5h502
	C509.761,0,512,2.239,512,5z M507,300H5c-2.761,0-5,2.239-5,5v30c0,2.761,2.239,5,5,5h502c2.761,0,5-2.239,5-5v-30
	C512,302.239,509.761,300,507,300z M507,472H5c-2.761,0-5,2.239-5,5v30c0,2.761,2.239,5,5,5h502c2.761,0,5-2.239,5-5v-30
	C512,474.239,509.761,472,507,472z"/>
<path style="fill:#C49D7A;" d="M512,5v30c0,2.761-2.239,5-5,5h-30c2.761,0,5-2.239,5-5V5c0-2.761-2.239-5-5-5h30
	C509.761,0,512,2.239,512,5z M507,300h-30c2.761,0,5,2.239,5,5v30c0,2.761-2.239,5-5,5h30c2.761,0,5-2.239,5-5v-30
	C512,302.239,509.761,300,507,300z M507,472h-30c2.761,0,5,2.239,5,5v30c0,2.761-2.239,5-5,5h30c2.761,0,5-2.239,5-5v-30
	C512,474.239,509.761,472,507,472z"/>
<path style="fill:#57676E;" d="M227.5,380v40c0,4.142-3.358,7.5-7.5,7.5s-7.5-3.358-7.5-7.5v-40c0-4.142,3.358-7.5,7.5-7.5
	S227.5,375.858,227.5,380z M290,372.5c-4.143,0-7.5,3.358-7.5,7.5v40c0,4.142,3.357,7.5,7.5,7.5s7.5-3.358,7.5-7.5v-40
	C297.5,375.858,294.143,372.5,290,372.5z M296,102.5h-80c-4.142,0-7.5,3.358-7.5,7.5s3.358,7.5,7.5,7.5h80
	c4.143,0,7.5-3.358,7.5-7.5S300.143,102.5,296,102.5z M120,102.5H80c-4.142,0-7.5,3.358-7.5,7.5s3.358,7.5,7.5,7.5h40
	c4.142,0,7.5-3.358,7.5-7.5S124.142,102.5,120,102.5z M430,102.5h-40c-4.143,0-7.5,3.358-7.5,7.5s3.357,7.5,7.5,7.5h40
	c4.143,0,7.5-3.358,7.5-7.5S434.143,102.5,430,102.5z"/>
<g>
</g>
<g>
</g>
<g>
</g>
<g>
</g>
<g>
</g>
<g>
</g>
<g>
</g>
<g>
</g>
<g>
</g>
<g>
</g>
<g>
</g>
<g>
</g>
<g>
</g>
<g>
</g>
<g>
</g>
</svg>
