<svg id="Capa_1" enable-background="new 0 0 512 512" height="512" viewBox="0 0 512 512" width="512" xmlns="http://www.w3.org/2000/svg"><g><path d="m509.922 142.707-9.809-11.261c-3.368-3.867-9.376-3.866-12.744.001l-5.512 6.33c-3.368 3.867-9.375 3.868-12.744.001l-5.517-6.334c-3.368-3.866-9.374-3.866-12.742 0l-5.52 6.336c-3.368 3.866-9.374 3.866-12.742 0l-5.522-6.338c-3.368-3.865-9.374-3.865-12.742 0l-9.368 10.751c-1.605 1.842-3.928 2.899-6.371 2.899h-20.698c-4.858 0-8.796-3.938-8.796-8.796v-24.321c0-4.146-3.361-7.508-7.508-7.508h-99.707c-4.146 0-7.508 3.361-7.508 7.508v99.707c0 4.146 3.361 7.508 7.508 7.508h99.707c4.146 0 7.508-3.361 7.508-7.508v-20.129c0-4.858 3.938-8.796 8.796-8.796h121.067c7.203 0 13.042-5.839 13.042-13.042v-21.459c0-2.039-.738-4.01-2.078-5.549zm-188.755 41.843c0 3.266-2.647 5.913-5.913 5.913h-23.936c-3.266 0-5.913-2.647-5.913-5.913v-45.441c0-3.266 2.647-5.913 5.913-5.913h23.936c3.266 0 5.913 2.647 5.913 5.913z" fill="#eab14d"/><g fill="#e7a52e"><path d="m350.081 111.976v24.321c0 4.858 3.938 8.796 8.796 8.796h19.014c-4.858 0-8.796-3.938-8.796-8.796v-24.321c0-4.146-3.361-7.508-7.508-7.508h-19.014c4.146 0 7.508 3.362 7.508 7.508z"/><path d="m509.922 142.707-9.809-11.261c-3.368-3.867-9.376-3.866-12.744.001l-3.134 3.599 6.673 7.661c1.34 1.538 2.078 3.51 2.078 5.55v21.459c0 7.203-5.839 13.042-13.042 13.042h19.014c7.203 0 13.042-5.839 13.042-13.042v-21.459c0-2.04-.738-4.011-2.078-5.55z"/><path d="m350.081 191.555v20.129c0 4.146-3.361 7.508-7.508 7.508h19.014c4.146 0 7.508-3.361 7.508-7.508v-20.129c0-4.858 3.938-8.796 8.796-8.796h-19.014c-4.858-.001-8.796 3.937-8.796 8.796z"/></g><path d="m242.315 337.708-221.376 135.147c-9.109 5.561-20.794-.991-20.799-11.664l-.14-259.368c-.003-5.836 3.697-11.03 9.214-12.934l180.522-62.295c7.732-2.668 16.06 2.003 17.816 9.991l40.994 186.516c1.253 5.7-1.25 11.566-6.231 14.607z" fill="#dd636e"/><path d="m248.546 323.102-40.994-186.516c-1.756-7.988-10.085-12.659-17.816-9.991l-11.604 4.004 40.024 182.104c1.253 5.7-1.25 11.566-6.23 14.607l-211.788 129.292.002 4.589c.006 10.673 11.69 17.225 20.799 11.664l221.376-135.147c4.981-3.041 7.483-8.907 6.231-14.606z" fill="#da4a54"/><g><g><g><path d="m52.028 357.549c-1.087 0-2.191-.23-3.242-.717-3.871-1.794-5.556-6.386-3.764-10.259l26.226-56.624-6.592-3.052c-3.871-1.794-5.556-6.386-3.764-10.259 1.793-3.872 6.385-5.557 10.259-3.764l13.602 6.3c3.871 1.794 5.556 6.386 3.764 10.259l-29.473 63.635c-1.307 2.821-4.1 4.481-7.016 4.481z" fill="#ffe07d"/></g></g><g><g><path d="m92.359 376.228c-1.087 0-2.191-.23-3.242-.717-3.871-1.794-5.556-6.386-3.764-10.259l26.226-56.624-6.592-3.052c-3.871-1.794-5.556-6.386-3.764-10.259 1.794-3.872 6.384-5.558 10.259-3.764l13.602 6.3c3.871 1.794 5.556 6.386 3.764 10.259l-29.473 63.635c-1.307 2.821-4.1 4.481-7.016 4.481z" fill="#ffe07d"/></g></g></g><g><path d="m167.244 284.383c-1.114 0-2.244-.242-3.317-.753l-90.128-42.92c-3.853-1.835-5.489-6.446-3.654-10.298 1.835-3.854 6.444-5.487 10.298-3.654l90.128 42.921c3.853 1.835 5.489 6.446 3.654 10.298-1.324 2.78-4.094 4.406-6.981 4.406z" fill="#ffe07d"/></g><g fill="#2b4d66"><path d="m298.382 133.196c-2.73 8.268-7.179 16.442-12.976 23.696-8.073 10.101-18.758 18.401-31.034 22.687-5.776 2.016-11.898 3.157-18.274 3.157-5.161 0-13.851-.718-18.779-1.712l3.554 16.169c5.273.635 11.099.996 15.226.996 6.191 0 12.319-.873 18.274-2.482 11.235-3.036 21.843-8.744 31.034-16.488 13.733-11.571 24.29-27.656 29.074-46.022h-16.099z"/><path d="m236.098 52.573c14.568 0 29.441 6.341 41.874 17.855 10.126 9.377 17.823 21.503 21.77 34.04h16.065c-4.226-16.708-14.05-33.076-27.335-45.378-15.3-14.168-33.9-21.97-52.374-21.97-44.407 0-80.535 36.128-80.535 80.534 0 20.344 7.606 39.767 21.417 54.689 1.523 1.646 3.595 2.479 5.673 2.479 1.877 0 3.76-.68 5.245-2.055 3.132-2.898 3.322-7.787.424-10.919-11.16-12.058-17.306-27.754-17.306-44.194 0-35.886 29.196-65.081 65.082-65.081z"/></g></g></svg>