<svg id="Capa_1" enable-background="new 0 0 512 512" height="512" viewBox="0 0 512 512" width="512" xmlns="http://www.w3.org/2000/svg"><g id="XMLID_563_"><path id="XMLID_623_" d="m472.048 280.501c-7.171 4.482-12.353 7.72-24.052 7.72-11.7 0-16.881-3.238-24.053-7.72-5.685-3.553-12.291-7.658-21.771-10.109-4.074-77.1-68.08-138.575-146.177-138.575s-142.103 61.474-146.176 138.574c-9.481 2.45-16.088 6.557-21.773 10.11-7.17 4.481-12.352 7.72-24.049 7.72s-16.878-3.238-24.048-7.72c-8.753-5.471-19.647-12.28-39.949-12.28v30c11.697 0 16.878 3.238 24.048 7.72 8.753 5.471 19.647 12.28 39.949 12.28s31.196-6.809 39.95-12.28c7.17-4.481 12.352-7.72 24.049-7.72s16.879 3.238 24.049 7.72c8.754 5.471 19.648 12.28 39.95 12.28 20.301 0 31.195-6.809 39.948-12.28 7.17-4.481 12.351-7.72 24.048-7.72 11.698 0 16.879 3.238 24.05 7.72 8.754 5.471 19.648 12.28 39.95 12.28s31.197-6.809 39.95-12.28c7.171-4.482 12.353-7.72 24.051-7.72 11.699 0 16.881 3.238 24.052 7.72 8.754 5.471 19.649 12.28 39.952 12.28s31.197-6.809 39.952-12.28c7.171-4.482 12.353-7.72 24.052-7.72v-30c-20.303 0-31.197 6.809-39.952 12.28zm-128.006 0c-7.171 4.482-12.353 7.72-24.051 7.72s-16.879-3.238-24.049-7.72c-8.754-5.471-19.648-12.28-39.95-12.28-20.301 0-31.195 6.809-39.948 12.28-7.17 4.481-12.351 7.72-24.048 7.72-11.698 0-16.879-3.238-24.049-7.72-6.849-4.281-15.032-9.366-27.983-11.383 4.65-59.946 54.915-107.301 116.033-107.301s111.383 47.355 116.033 107.3c-12.955 2.017-21.139 7.103-27.988 11.384z"/><path id="XMLID_625_" d="m447.996 359.759c-11.7 0-16.881-3.238-24.053-7.72-8.754-5.471-19.649-12.28-39.952-12.28-20.302 0-31.197 6.809-39.95 12.28-7.171 4.482-12.353 7.72-24.051 7.72s-16.879-3.238-24.049-7.72c-8.754-5.471-19.648-12.28-39.95-12.28-20.301 0-31.195 6.809-39.948 12.28-7.17 4.481-12.351 7.72-24.048 7.72-11.698 0-16.879-3.238-24.049-7.72-8.754-5.471-19.648-12.28-39.95-12.28s-31.196 6.809-39.95 12.28c-7.17 4.481-12.352 7.72-24.049 7.72s-16.878-3.238-24.048-7.72c-8.753-5.471-19.647-12.28-39.949-12.28v30c11.697 0 16.878 3.238 24.048 7.72 8.753 5.471 19.647 12.28 39.949 12.28s31.196-6.809 39.95-12.28c7.17-4.481 12.352-7.72 24.049-7.72s16.879 3.238 24.049 7.72c8.754 5.471 19.648 12.28 39.95 12.28 20.301 0 31.195-6.809 39.948-12.28 7.17-4.481 12.351-7.72 24.048-7.72 11.698 0 16.879 3.238 24.05 7.72 8.754 5.471 19.648 12.28 39.95 12.28s31.197-6.809 39.95-12.28c7.171-4.482 12.353-7.72 24.051-7.72 11.699 0 16.881 3.238 24.052 7.72 8.754 5.471 19.649 12.28 39.952 12.28s31.197-6.809 39.952-12.28c7.171-4.482 12.353-7.72 24.052-7.72v-30c-20.303 0-31.197 6.809-39.952 12.28-7.171 4.482-12.353 7.72-24.052 7.72z"/><path id="XMLID_626_" d="m319.991 431.297c-11.698 0-16.879-3.238-24.049-7.72-8.754-5.471-19.648-12.28-39.95-12.28-20.301 0-31.195 6.809-39.948 12.28-7.17 4.481-12.351 7.72-24.048 7.72-11.698 0-16.879-3.238-24.049-7.72-8.754-5.471-19.648-12.28-39.95-12.28v30c11.698 0 16.879 3.238 24.049 7.72 8.754 5.471 19.648 12.28 39.95 12.28 20.301 0 31.195-6.809 39.948-12.28 7.17-4.481 12.351-7.72 24.048-7.72 11.698 0 16.879 3.238 24.05 7.72 8.754 5.471 19.648 12.28 39.95 12.28s31.197-6.809 39.95-12.28c7.171-4.482 12.353-7.72 24.051-7.72v-30c-20.302 0-31.197 6.809-39.95 12.28-7.173 4.482-12.354 7.72-24.052 7.72z"/><path id="XMLID_627_" d="m241.152 50.703h30v53.789h-30z"/><path id="XMLID_628_" d="m154.097 70.502h30v53.789h-30z" transform="matrix(.901 -.434 .434 .901 -25.513 83.013)"/><path id="XMLID_631_" d="m84.253 126.111h30v53.789h-30z" transform="matrix(.624 -.782 .782 .624 -82.255 135.208)"/><path id="XMLID_632_" d="m45.455 206.518h30v53.788h-30z" transform="matrix(.223 -.975 .975 .223 -180.558 240.414)"/><path id="XMLID_635_" d="m424.712 218.716h53.789v30h-53.789z" transform="matrix(.975 -.223 .223 .975 -40.685 106.353)"/><path id="XMLID_637_" d="m386.039 138.25h53.789v30h-53.789z" transform="matrix(.782 -.624 .624 .782 -5.46 290.897)"/><path id="XMLID_638_" d="m316.282 82.532h53.789v30h-53.789z" transform="matrix(.434 -.901 .901 .434 106.405 364.406)"/></g></svg>